<?xml version="1.0" encoding="utf-8"?>
<!-- Generator: Blender 3D 25.2.1, SVG Export Plug-In . SVG Version: 6.00 Build 0)  -->
<svg version="1.1" id="Layer_1" xmlns="http://www.w3.org/2000/svg" xmlns:xlink="http://www.w3.org/1999/xlink" x="0px" y="0px"
	 viewBox="0 0 396.9 396.9" style="enable-background:new 0 0 396.9 396.9;" xml:space="preserve">
<style type="text/css">
	.st0{fill:#00005B;}
	.st1{fill:#9999FF;}
</style>
<g transform="matrix(1.00000012 0 0 1.00000012 159.999963 83)">
	<path class="st0" d="M-85.8-72.1h248.4c37.7,0,68.1,30.4,68.1,68.1v238.8c0,37.7-30.4,68.1-68.1,68.1H-85.8
		c-37.7,0-68.1-30.4-68.1-68.1V-4C-153.9-41.6-123.4-72.1-85.8-72.1z"/>
	<g>
		<path class="st1" d="M-62.5,190.9V26c0-1.1,0.5-1.8,1.6-1.8c2.7,0,5.3,0,9-0.2c3.8-0.2,7.9-0.2,12.2-0.3s9-0.2,13.9-0.3
			s9.8-0.2,14.6-0.2c13.1,0,24,1.6,33,5c8,2.7,15.4,7.2,21.5,13.1c5.1,5.1,9.1,11.4,11.7,18.3c2.4,6.7,3.7,13.6,3.7,20.8
			c0,13.8-3.2,25.2-9.6,34.1s-15.4,15.7-25.8,19.6c-10.9,4-22.9,5.4-36.1,5.4c-3.8,0-6.4,0-8-0.2c-1.6-0.2-3.8-0.2-6.9-0.2v51.4
			c0.2,1.1-0.6,2.1-1.8,2.2h-31.1C-61.9,193-62.5,192.3-62.5,190.9L-62.5,190.9z M-27.6,55.2V109c2.2,0.2,4.3,0.3,6.2,0.3h8.5
			c6.2,0,12.5-1,18.4-2.9c5.1-1.4,9.6-4.5,13.1-8.5c3.4-4,5-9.5,5-16.5c0.2-5-1.1-9.9-3.7-14.3c-2.7-4.2-6.6-7.4-11.2-9.1
			c-5.9-2.4-12.3-3.4-18.9-3.2c-4.2,0-7.9,0-10.9,0.2C-24.2,54.8-26.5,55-27.6,55.2L-27.6,55.2z"/>
		<path class="st1" d="M81.1,64.5h28c1.6,0,2.9,1.1,3.4,2.6c0.5,1.3,0.8,2.6,1,4c0.3,1.6,0.6,3.4,0.8,5c0.2,1.8,0.3,3.7,0.3,5.8
			c4.8-5.6,10.6-10.3,17.1-13.8c7.4-4.2,15.9-6.2,24.4-6.2c1.1-0.2,2.1,0.6,2.2,1.8v31.9c0,1.3-0.8,1.8-2.6,1.8
			c-5.8-0.2-11.7,0.3-17.3,1.6c-4.6,1-9.1,2.4-13.5,4.3c-3,1.4-5.9,3.4-8.2,5.9v81.7c0,1.6-0.6,2.2-2.1,2.2H83.1
			c-1.3,0.2-2.4-0.6-2.6-1.9v-89.4c0-3.8,0-7.9-0.2-12c-0.2-4.2-0.2-8.3-0.3-12.5c0-3.7-0.3-7.2-0.6-10.9c-0.2-0.8,0.3-1.6,1.1-1.8
			C80.6,64.3,80.9,64.3,81.1,64.5L81.1,64.5z"/>
	</g>
</g>
</svg>
