<?xml version="1.0" encoding="utf-8"?>
<!-- Generator: Blender 3D 25.2.1, SVG Export Plug-In . SVG Version: 6.00 Build 0)  -->
<svg version="1.1" id="Layer_1" xmlns="http://www.w3.org/2000/svg" xmlns:xlink="http://www.w3.org/1999/xlink" x="0px" y="0px"
	 viewBox="0 0 396.9 396.9" style="enable-background:new 0 0 396.9 396.9;" xml:space="preserve">
<style type="text/css">
	.st0{fill:#470137;}
	.st1{fill:#FF61F6;}
</style>
<g transform="matrix(1.00000012 0 0 1.00000012 159.999963 83.00005)">
	<path class="st0" d="M-86.2-72.7h249.3c37.8,0,68.4,30.6,68.4,68.4v239.6c0,37.8-30.6,68.4-68.4,68.4H-86.2
		c-37.8,0-68.4-30.6-68.4-68.4V-4.4C-154.6-42.2-124-72.7-86.2-72.7z"/>
	<g>
		<path class="st1" d="M48.4,26.2L0.1,105.8l51.5,84.4c0.3,0.6,0.5,1.3,0.3,1.9s-0.8,0.2-1.8,0.3H13.3c-2.6,0-4.3-0.2-5.5-1.8
			c-3.4-6.8-6.9-13.3-10.3-20.1c-3.4-6.6-7.1-13.3-10.9-20.3c-3.9-6.9-7.7-13.8-11.6-20.9h-0.3c-3.4,6.9-7.1,13.8-10.8,20.7
			c-3.7,6.9-7.4,13.8-10.9,20.6c-3.7,6.8-7.4,13.7-11.1,20.3c-0.6,1.6-1.9,1.8-3.7,1.8h-35.4c-0.6,0-1.1,0.3-1.1-0.5
			c-0.2-0.6,0-1.3,0.3-1.8l50-82L-96.7,26c-0.5-0.6-0.6-1.3-0.3-1.6c0.3-0.5,1-0.6,1.6-0.6h36.5c0.8,0,1.6,0.2,2.3,0.3
			c0.6,0.3,1.1,0.8,1.6,1.4c3.1,6.9,6.6,13.8,10.3,20.7c3.9,6.9,7.6,13.7,11.6,20.4c3.9,6.8,7.4,13.5,10.8,20.4h0.3
			c3.4-7.1,6.9-14,10.5-20.7s7.2-13.5,10.9-20.3s7.2-13.7,10.8-20.3c0.2-0.6,0.5-1.3,1-1.6c0.6-0.3,1.3-0.5,2.1-0.3h33.9
			c0.8-0.2,1.6,0.3,1.8,1.1C49,25.2,48.7,25.8,48.4,26.2L48.4,26.2z"/>
		<path class="st1" d="M122.7,195.8c-11.9,0.2-23.8-2.3-34.6-7.2c-10.1-4.7-18.5-12.4-24.3-21.9c-6-9.8-8.8-22-8.8-36.7
			c-0.2-11.9,2.9-23.6,8.8-33.9c6.1-10.5,15-19.1,25.6-24.9c11.3-6.3,24.8-9.3,40.7-9.3c0.8,0,1.9,0,3.4,0.2c1.4,0.2,3.1,0.2,5,0.3
			V11.5c0-1.1,0.5-1.8,1.6-1.8h32.6c0.8-0.2,1.4,0.5,1.6,1.1v153.4c0,2.9,0.2,6.1,0.3,9.7c0.3,3.4,0.5,6.6,0.6,9.3
			c0,1.1-0.5,2.1-1.6,2.6c-8.4,3.5-17.2,6.1-26.2,7.7C139.3,195,131.1,195.8,122.7,195.8z M138.5,163.7V92.9
			c-1.4-0.3-2.9-0.6-4.3-0.8c-1.8-0.2-3.5-0.3-5.3-0.3c-6.3,0-12.5,1.3-18.2,4.2c-5.5,2.7-10.1,6.8-13.7,11.9s-5.3,12.1-5.3,20.4
			c-0.2,5.6,0.8,11.3,2.7,16.6c1.6,4.3,4,8.2,7.2,11.4c3.1,2.9,6.8,5.1,10.9,6.4c4.3,1.4,8.8,2.1,13.3,2.1c2.4,0,4.7-0.2,6.8-0.3
			C134.8,164.6,136.5,164.3,138.5,163.7L138.5,163.7z"/>
	</g>
</g>
</svg>
