<?xml version="1.0" encoding="utf-8"?>
<!-- Generator: Blender 3D 25.2.1, SVG Export Plug-In . SVG Version: 6.00 Build 0)  -->
<svg version="1.1" id="Layer_1" xmlns="http://www.w3.org/2000/svg" xmlns:xlink="http://www.w3.org/1999/xlink" x="0px" y="0px"
	 viewBox="0 0 515.9 558.4" style="enable-background:new 0 0 515.9 558.4;" xml:space="preserve">
<style type="text/css">
	.st0{fill:#003642;}
	.st1{fill:#00877F;}
	.st2{fill:#C48E73;}
	.st3{opacity:0.7;fill:#A87B65;enable-background:new    ;}
	.st4{opacity:0.65;fill:#C99377;enable-background:new    ;}
	.st5{opacity:0.65;fill:#B5846B;enable-background:new    ;}
	.st6{fill:#008C83;}
	.st7{fill:#00635D;}
	.st8{fill:#00C9BC;}
	.st9{fill:#007D76;}
	.st10{opacity:0.8;fill:#009E94;enable-background:new    ;}
	.st11{opacity:0.8;fill:#00827A;enable-background:new    ;}
	.st12{fill:#111113;}
	.st13{opacity:0.54;fill:#5E4F4C;enable-background:new    ;}
	.st14{fill:#2C2425;}
	.st15{fill:#E6E6E6;}
	.st16{fill:#1A1A1A;}
	.st17{fill:url(#SVGID_1_);}
	.st18{fill:url(#SVGID_2_);}
	.st19{opacity:0.8;fill:#1A1A1A;enable-background:new    ;}
	.st20{opacity:0.61;fill:#CCCCCC;enable-background:new    ;}
	.st21{opacity:0.7;fill:#251C1C;enable-background:new    ;}
	.st22{opacity:0.75;fill:#A06250;enable-background:new    ;}
	.st23{opacity:0.75;fill:#946455;enable-background:new    ;}
	.st24{fill:url(#SVGID_3_);}
	.st25{fill:url(#SVGID_4_);}
	.st26{fill:url(#SVGID_5_);}
	.st27{fill:url(#SVGID_6_);}
	.st28{fill:url(#SVGID_7_);}
	.st29{fill:url(#SVGID_8_);}
	.st30{fill:url(#SVGID_9_);}
	.st31{fill:url(#SVGID_10_);}
	.st32{fill:url(#SVGID_11_);}
	.st33{fill:url(#SVGID_12_);}
	.st34{fill:url(#SVGID_13_);}
	.st35{fill:url(#SVGID_14_);}
	.st36{fill:url(#SVGID_15_);}
	.st37{fill:url(#SVGID_16_);}
	.st38{fill:url(#SVGID_17_);}
	.st39{fill:url(#SVGID_18_);}
	.st40{fill:url(#SVGID_19_);}
	.st41{fill:url(#SVGID_20_);}
	.st42{fill:url(#SVGID_21_);}
	.st43{fill:url(#SVGID_22_);}
	.st44{fill:#F2F2F2;}
	.st45{opacity:0.75;fill:#735444;enable-background:new    ;}
	.st46{opacity:0.75;fill:#CF9D84;enable-background:new    ;}
	.st47{opacity:0.75;fill:#B5836A;enable-background:new    ;}
	.st48{fill:#7D4E43;}
	.st49{opacity:0.5;fill:#AD7D66;enable-background:new    ;}
	.st50{opacity:0.6;fill:#D69F83;enable-background:new    ;}
	.st51{opacity:0.6;fill:#242429;enable-background:new    ;}
</style>
<path class="st0" d="M482.1,286.7c-1.5,2.9-15.3,30-31.5,64.3c-3.8,8-7.9,17.2-12.6,28.6c0,0,0,0,0,0c-1.3,3.3-2.7,6.6-4.2,10.3
	c-7.5,18.8-8.3,23.6-12.2,33.2c-0.1,0.3-0.6,1.5-1.5,3.4c0,0,0,0.1,0,0.1c-2.2,4.9-6.7,14.4-13.3,25c0,0,0,0.1-0.1,0.1v0
	c-5.8,9.3-13.1,19.6-21.9,28.6c-0.1,0.1-0.2,0.2-0.4,0.4c-2.4,2.4-4.8,4.7-7.4,6.8c-3.4,2.8-7,5.5-11.2,8.1
	c-11.4,7.2-26.5,14-49.9,22.5c-48.3,17.7-80.2,29.4-111.2,34.7c-12,2.1-23.8,3.1-36.4,3.3c-3,0-6,0-9-0.1c-0.8,0-1.7-0.1-2.5-0.1
	c-36.6-1-69.6-2.4-99-24C-7.6,483.8,3.1,377.8,4.5,365C19.3,219.6,168,144.6,178.8,139.4c7.2-3.5,12.7-5.7,23.5-10.2
	c3.3-1.3,6.7-2.7,10.2-4.2c0.3-0.1,0.7-0.3,1-0.4c0.5-0.2,1.1-0.4,1.6-0.7c3.4-1.4,6.9-2.8,10.5-4.3c0.8-0.3,1.7-0.7,2.5-1
	c5.2-2.1,10.6-4.2,16.2-6.4c4.4-1.7,8.9-3.5,13.5-5.2c0,0,0,0,0,0c0.3-0.1,0.5-0.2,0.8-0.3c0,0,0,0,0.1,0c4-1.5,8-3,12.1-4.5
	c1-0.4,1.9-0.7,2.9-1.1c0.9-0.3,1.8-0.7,2.7-1c0.8-0.3,1.6-0.6,2.4-0.9c1.4-0.5,2.8-1,4.3-1.5c0,0,0,0,0.1,0c0.7-0.2,1.3-0.5,2-0.7
	c0.7-0.3,1.4-0.5,2.1-0.7c0,0,0,0,0.1,0c1-0.3,1.9-0.7,2.9-1c0.4-0.1,0.8-0.3,1.2-0.4c0,0,0,0,0,0c1.8-0.6,3.6-1.2,5.4-1.9
	c0,0,0,0,0,0c0.6-0.2,1.1-0.4,1.7-0.6c0,0,0,0,0,0c2.5-0.8,4.9-1.7,7.4-2.5c1-0.3,2.1-0.7,3.1-1c0.1,0,0.2-0.1,0.2-0.1
	c0.4-0.1,0.8-0.3,1.2-0.4c0.6-0.2,1.3-0.4,1.9-0.6c0.2-0.1,0.4-0.1,0.5-0.2c0.2-0.1,0.4-0.1,0.5-0.2c1.2-0.4,2.4-0.8,3.6-1.2h0
	c69.6-21.8,141.4-33.5,174.5-0.2C536.3,131.3,501.2,249.6,482.1,286.7z"/>
<g>
	<path class="st1" d="M399.7,416.5c0.5,4.3,0.3,8.8-1.2,13.9c-1.6,5.4-4.3,9.9-7,13.4c0,0,0,0,0,0.1c-1.2,1.5-2.3,2.8-3.5,3.9
		c0,0,0,0,0,0c-0.2,0.2-0.4,0.4-0.6,0.6l0,0c-0.8,0.8-1.5,1.4-2.2,2.1c0,0.7,0,1.6,0,2.5c0,0.1,0,0.2,0,0.3c0,2.2,0,5,0,8.1
		c-0.1,8.6-0.3,14.2-0.6,19.3c-2.4,2.4-4.8,4.7-7.4,6.8c-3.4,2.8-7,5.5-11.2,8.1c-11.4,7.2-26.5,14-49.9,22.5
		c-48.3,17.7-80.2,29.4-111.2,34.7c-12,2.1-23.8,3.1-36.4,3.3c-3,0-6,0-9-0.1c-0.8,0-1.7-0.1-2.5-0.1c-0.8-8.5-2.9-15.6-2.2-28.9
		c0.3-6.4,1.4-15.9,5-27.4c0.2-8.6,0.1-15.6,0-20.1c-0.2-13-0.7-18.3,1-26.2c0-0.1,0-0.1,0-0.2c1.3-6,3.2-9.9,4-11.9
		c0.8-1.9,1.4-3.8,1.9-5.8c1.3-5,1.7-10,1.6-15.1c-0.2-16.6-5.2-33.2-0.2-44.8c3.8-8.7,11.3-11.6,29.8-15.7c0.8-0.2,1.5-0.3,2.3-0.5
		c7.2-1.6,16-3.4,26.7-5.7c61.5-13.4,79.3-21.9,124.4-23.7c3.1-0.1,6-0.2,8.7-0.2c1,0,2,0,2.9,0c25.3-0.1,35.7,3.8,38.8,11.2
		c3,7.2-3.3,12.3-6.7,25.1c-0.8,2.8-1.4,5.9-1.7,9.6C391.6,393.8,398.3,404.5,399.7,416.5z"/>
	<g>
		<path class="st2" d="M300.8,218.8c-1.6,14.9-10.6,32.3-20.2,32.8c-1.3,0.1-3.7-0.1-11.8-7.3c-13.3-11.8-14-17.9-25.2-29.2
			c-11.6-11.7-16.1-10.4-18.5-18.2c-1.7-5.3-1.7-12.6-1.7-23.7v-14.6c0,0,0,0,0,0c6-3.1,19.4-8.8,37-7.3c18.6,1.6,31.6,10.4,37,14.6
			c0.1,0.1,0.2,0.3,0.3,0.4c2,2.7,2.8,5.2,3,6.9c0.1,0.9,0.2,1.6,0.2,2.5c0,1.1-0.1,2.5-0.2,4.8v7.3
			C300.8,203.9,301.6,211.6,300.8,218.8z"/>
		<path class="st3" d="M221,167.4c1.6-0.6,3.8,4.3,10.5,11.9c2.3,2.5,4.3,4.5,8.5,8.3c10.8,10.1,12.1,9.5,15,14
			c3.3,5.3,2.1,7,6.1,12.3c2.3,3.1,3.9,4,7.7,7.9c3.7,3.9,6.4,7.4,8.1,9.7c0.8-6.1,2.8-10.2,4.5-12.7c1.9-3,3.6-4.2,6.5-8.8
			c1-1.6,2.4-3.9,3.6-7c1.7-4.1,2.3-8.4,3.6-17.1c0.4-2.9,0.7-4.3,0.8-5.7c0.5-4.9,0.3-6.4,0.8-6.6c1.4-0.5,5.3,9.2,8.9,16.7
			c10.6,22,17.1,22.1,17.4,30.7c0.5,14.4-17.1,27.4-29.8,32.3c-16.7,6.5-31.5,1.6-35.9,0c-17-6-36-22.1-38.3-41.5
			c-1-8.8,2.2-12.1,1.2-31.6C219.9,174.2,219.3,168,221,167.4z"/>
		<path class="st3" d="M298.3,167.8c-1.4,2-3.7,4.6-6.9,7c-4.7,3.5-9.4,4.8-12.1,5.3c-3.6,1-8.8,1.9-14.9,1.7
			c-13-0.6-22.5-6.4-28.4-10c-5.5-3.4-9.7-7-12.5-9.7c0-1.2,0-2.4,0-3.6c6.6,8.4,15.8,12.4,20.7,14.6c8.2,3.6,22.8,10.2,38.7,3.6
			c1.5-0.6,8.3-3.5,14.9-10.5C297.9,166.8,298.1,167.3,298.3,167.8z"/>
	</g>
	<g>
		<path class="st2" d="M236.4,477.4c4.4,2.3,8.9,1.1,10.9,0.4c3,0.5,7.6,1.2,13.4,1.8c19.4,1.8,35.1,0.3,46.9-0.9
			c5.4-0.5,10.2-1.2,18.2-2.2c6.8-0.9,9.1-1.3,11.7-1.8c10.1-1.9,14.5-3.9,17-5.3c3-1.6,5.1-3.1,5.7-3.5c3.3-2.4,9-7.4,13.8-16.7
			c0.7-1.1,1.5-2.9,1.2-4.8c-1.3-8.2-21-7.8-51.8-14.9c-28.3-6.5-36.1-12.6-50.6-7.5c-3.6,1.3-8.3,4.2-17.8,10.1
			c-16.6,10.3-25,15.7-26.7,23.7C226.7,463.3,229.4,473.8,236.4,477.4z"/>
		<path class="st3" d="M262.7,450.2c-4.9,5.5-8.9,9.3-11.7,11.9c-1.5,1.3-3.8,3.3-6.5,6.6c-2.1,2.6-3.5,5-4.5,6.6
			c1,0.4,2.1,0.9,3.2,1.3c1.4,0.5,2.8,1,4,1.3c-1.6,0.5-4.6,1.2-8.1,0.4c-2.2-0.5-4.5-1-5.3-2.6c-1.9-4,6.5-12.4,7.7-13.6
			C245.3,458.4,251.9,453.1,262.7,450.2z"/>
		<path class="st3" d="M273.2,428.2c0,0.8,2.2,1.2,4.9,1.8c5.6,1.2,11,3.1,16.6,4.4c6.1,1.4,5,1.4,16.2,4.4
			c7.1,1.9,13.5,3.6,21.5,5.3c9,1.9,17.2,3.7,27.9,4.4c1.3,0.1,3.9,0.5,7.4,0.3c1.5-0.1,2.8-0.2,3.5-0.3c0.4,0.4,1.2,1.1,2.4,1.3
			c2,0.3,4.1-0.9,4-1.8c-0.1-1.2-4.1-1.8-6.1-2.2c-14-2.9-27.5-8.4-41.3-12.3c-25.2-7.1-33.7-10.4-46.1-8.8
			C282.9,424.9,273.2,426.6,273.2,428.2z"/>
		<path class="st2" d="M220.4,393.3c1.2-0.3,3.2-0.7,5.7-1.3c6.1-1.5,11-2.8,14.4-3.7c2.2-0.6,3.7-1,4.3-1.2
			c19.7-5.5,34.8-6.1,34.8-6.1c9.4-0.4,7.5,1,24.3,1.3c11.4,0.2,17.1,0.3,21.5-0.4c12-2.1,23.8-7.7,36.4-7.9c1.1,0,2.9,0,4.9,0.9
			c5.5,2.4,6.9,8.9,9.7,15.4c5.7,13,10.2,10.4,15.4,22.8c2,4.9,5,12.3,3.2,21.1c-0.5,2.7-2.4,12.1-9.3,14.9
			c-3.1,1.3-7.9,1.5-11.7-0.9c-0.5-0.3-0.9-0.7-1.2-0.9c-4,0-9.7-0.2-16.6-0.9c-12.3-1.2-21.6-3.5-30.8-5.7
			c-13.7-3.4-16.2-4.9-30.8-8.3c-8-1.9-14.5-3.2-18.6-4c-14.6-8-27-12.1-36-14.5c-10.6-2.8-21-4.2-22.7-10.5
			C216.2,399.8,218.4,396,220.4,393.3z"/>
		<path class="st3" d="M368.4,375.3c-2.6-0.5-4.8-0.3-6.4,0c0,0.6,0,1.2,0,1.7c1.3,1.4,3.3,3.6,4.8,6.9c2.7,5.9,1.5,9.5,3.2,15.5
			c1.4,5.1,2.4,3.1,7.9,13.8c1.4,2.8,4.9,9.6,7.9,18.9c0.7,2.1,1.2,3.9,1.6,5.2c-0.6,1.5-1.6,3.4-3.2,5.2
			c-4.7,5.2-11.2,5.2-12.7,5.2c2.2,0.8,5.5,1.8,9.5,1.7c8.7-0.2,18.7-5.5,22.2-13.8c3.3-7.9-3.1-19.1-15.9-41.3
			C381.6,384.1,376.4,376.8,368.4,375.3z"/>
	</g>
	<g>
		<path class="st4" d="M255.7,399.4c0.3-1.9,17.4-1.3,51.6,0c20.6,0.8,30.2,1.4,39.6-5.2c7.2-5,10.2-11.5,13.8-10.3
			c4.6,1.4,1.6,12.3,8.6,27.5c4.1,9.1,8.2,11.8,6.9,13.8c-2.5,3.9-18.5-7.2-44.7-12c-20.2-3.8-25.4,0.1-49.9-5.2
			C269.2,405.4,255.4,401.2,255.7,399.4z"/>
		<path class="st5" d="M278.1,420.1c14.1,0.2,25.3,0.1,32.7,0c10.9-0.2,20.6-0.5,32.7,3.4c4.5,1.4,10.6,3.9,10.3,5.2
			c-0.4,1.7-11.6-1-29.3,0c-11.8,0.7-13.6,2.3-20.7,1.7C292.7,429.5,283.9,424.4,278.1,420.1z"/>
		<path class="st4" d="M257.4,459.6c23.7,3.1,41.6-0.1,53.3-3.4c1.3-0.4,17.7-5.2,17.2-8.6c-0.4-2.9-12.5-1.9-29.3-6.9
			c-9.1-2.7-16.1-6.1-20.7-8.6c-1.2,3.1-2.9,6.7-5.2,10.3C267.9,450.5,262,456.1,257.4,459.6z"/>
		<path class="st5" d="M295.3,471.7c-8.6-1.6-10.4-2.7-10.3-3.4c0.1-2.6,23.5-8.4,43-6.9c4.1,0.3,12.2,1.3,17.2-3.4
			c1.9-1.8,2.5-3.6,5.2-5.2c4.7-2.7,11.4-2,12,0c0.8,2.5-7.2,7.6-13.8,10.3c-7.6,3.1-14,3.3-17.2,3.4
			C323.1,466.9,311.1,468,295.3,471.7z"/>
	</g>
	<g>
		<g>
			<path class="st6" d="M220.2,165.9c1-1.2,2.4-1.6,3.4-1.8c0,1.6,0.2,4.1,1.1,6.9c1.5,4.7,4.2,7.9,5.7,9.5c1.8,2,2.6,2.7,5,5.4
				c1.9,2.2,2.2,2.8,5.1,5.5c6.3,6,6.7,5.1,10.1,9.1c3.9,4.6,6,7.1,6.7,10.9c0.2,1.3,0.4,3.3,1.7,5.5c1.1,1.9,2.5,3,3.4,3.6
				c6.2,4.7,8.3,5.6,10.1,7.3c2,1.9,4.4,5.4,5,12.8c0.3-3.1,1.2-7.7,3.4-12.8c3.9-8.8,8.2-10.3,11.8-18.2c1.7-3.8,2.3-8.7,3.4-18.2
				c0.7-6.3,1.5-15,1.7-25.5c2.2,2.8,3.8,5.3,5,7.3c2.4,3.8,4,7,5,9.1c1.4,2.9,2.6,5.4,3.4,7.3c1.2,0.4,2.9,1,5,1.8
				c10.5,3.9,11.9,4.7,15.1,5.5c5.3,1.2,5-0.5,13.5,0c2.1,0.1,9.4,0.6,18.5,3.6c5.1,1.7,9.9,3.3,15.1,7.3c4.7,3.6,7.7,7.5,10.1,10.9
				c10.6,15.6,17.3,36.4,20.2,45.6c7.1,23,5.5,25.2,11.8,40.1c3.3,7.8,5.4,11.2,8.4,20.1c3.9,11.5,5.4,20.5,6.7,29.2
				c0,0,4.6,29.3,1.7,51.1c-0.4,2.6-0.5,2-1.7,9.1c-1.2,6.7-1.4,9.1-3.4,10.9c-0.5,0.5-0.2,0.2-4.1,2.6c-1.1,0.7-2.5,1.6-4.3,2.9
				c-1.6,1.1-5,3.6-5,3.6c-1.3,1.6-3.1,4.1-5,7.3c-3.8,6.2-3.1,7.3-5,9.1c-3.6,3.4-6.3,0.2-18.5,1.8c-6.5,0.9-8,1.4-11.8,0
				c-2.9-1.1-5-2.9-6.3-4.3c2-0.3,4.4-0.8,6.9-1.8c5-1.9,8.7-4.6,11.2-6.7c-4-10.9-7.5-19.5-10.1-25.5c-4.6-10.7-5.3-11.4-6.7-16.4
				c-1.6-5.8-2-9.8-5-14.6c-2.2-3.6-4.9-5.9-6.7-7.3c-1.2,0.4-2.8,1-4.9,1.7c-6.8,2.2-17.4,5.7-27.1,7.5
				c-10.4,1.9-18.7,1.5-31.6,0.9c-4.1-0.2-9.6-0.6-17.8-0.4c-6.4,0.1-5.4,0.4-11.7,0.4c-5.6,0.1-10.8-0.1-16.2,0.9
				c-2.5,0.5-3.9,0.8-3.9,0.8c-2.5,0.6-4.2,1.2-6.7,1.8c-1.5,0.4-2.7,0.6-4.5,1c-6.1,1.2-12.3,2.4-14.8,2.9c1.5,1.2,3.1,2.7,4.7,4.4
				c3,3.2,5.1,6.4,6.7,9.1c3.6-0.4,6.5-0.2,8.4,0c4.9,0.5,10.4,1.1,13.5,5.5c1,1.4,1.4,2.8,1.7,3.6c2.7,1.7,5.5,3.5,8.4,5.5
				c3.6,2.4,6.9,4.9,10.1,7.3c-0.3,1.3-0.8,3.3-1.7,5.5c-2.3,6-5.7,10.4-11.8,16.4c-4.5,4.5-10.8,10.2-19,16c-0.9,0.6-1,1.5-2.9,4.1
				c-2.3,3.2-3,3.8-2.8,4.7c0.4,1.8,3.6,2.4,4.9,2.6c2,0.4,3.6,0.2,4.7-0.1c-1.9,0.3-4.8,0.7-8.3,0.5c-6.3-0.4-7.2-2.3-11.3-1.8
				c-5.6,0.7-7.5,4.7-10.6,3.1c-2-1-1.7-2.8-4.4-4c-2.2-0.9-3.5-0.2-6.1-1.3c-1.4-0.6-2.4-1.4-3-2c-5.9-0.8-10.4-2.4-13.5-3.6
				c-7.1-2.9-8-5-16.8-9.1c-7.3-3.4-8.5-2.8-11.8-5.5c-5.2-4.2-7.3-9.9-8.4-12.8c-12.4-32.7-8.3-14.2-16.8-42
				c-6.2-20.2-9.3-30.3-11.8-42c-3.5-16.5-7-40.1-6.7-69.3c-0.6-1.6-1.4-4.1-1.7-7.3c-0.6-5.6,0.7-9.5,1.7-14.6
				c1.4-7.3,0.4-7.1,1.7-16.4c1.2-8.6,2.1-15,5-21.9c1.4-3.2,5.3-12,13.5-18.2c5.6-4.3,8.2-3.6,28.6-9.1c13.1-3.6,19.7-5.4,23.5-7.3
				c5.1-2.5,10.7-6.1,20.2-9.1c2.8-0.9,5.1-1.5,6.7-1.8c1-3,1.5-5.5,1.7-7.3C219.1,170.5,218.5,167.9,220.2,165.9z"/>
		</g>
		<path class="st7" d="M363.1,293.4c0.5,0,1.2,7.3,0.8,15.4c-0.5,10.2-2.2,9.6-1.6,15.8c0.3,3.5,1.2,7,2.4,16.2
			c0.1,1,0.2,1.3,0.2,1.8c0.5,4.8-0.1,7.5-0.6,12.7c-1.2,11.9-1.1,14.6-0.8,15.8c0.6,2.5,1.4,4.5,2,5.7c-1.2-0.3-2.4-0.6-3.6-0.9
			c-0.1,0-0.3,0-0.4,0c-3,0.9-5.9,1.8-8.9,2.6c0.3-1.7,0.8-4.3,1.6-7.5c1.8-6.6,3.4-8.8,4.5-13.6c1-4.2,0.8-7,0.8-11.4
			c0-12.8,1.6-25.5,2.4-38.2C362.6,296.3,362.8,293.4,363.1,293.4z"/>
		<path class="st8" d="M364.7,379.5c0.8,0.8,1.6,1.8,2.4,2.6c3.2,3.4,4.1,11.4,4.5,13.6c0.7,5,2,5.5,7.7,17.6
			c2.8,5.9,6.5,14.5,10.5,25.5c-1.2,1.4-2.8,3-4.9,4.4c-5.5,3.7-11,4-13.8,4c0.5,0.7,1.3,1.7,2.4,2.6c1.2,1,4.1,3.1,10.5,3.5
			c5.1,0.3,5.7-0.9,12.5-1.3c6.5-0.4,6.9,0.7,9.3,0c6.8-1.8,9.9-11.8,12.5-20.2c2.4-7.9,6.3-20.3,4-36.9
			c-1.9-14.6-7.6-25.2-11.3-31.2c-2.9,0.7-7.4,1.7-13,2.2c-3.6,0.4-4.1,0.1-6.9,0.4c-7.6,0.9-7.6,2.8-14.6,4
			c-3.2,0.5-9.4,1.2-13.8,3.5c-0.5,0.3-1.5,0.8-1.6,1.8C361.4,376.5,362.5,377.3,364.7,379.5z"/>
		<path class="st9" d="M247.7,461.6c-0.2,0.2-0.5,0.5-0.8,0.9c-6.2,6.8-9.7,10.7-8.9,12.7c0.3,0.7,1.5,1.1,4,1.8
			c3,0.8,5.5,1.2,7.3,1.3c-2.1,0.4-4.3,0.8-6.5,1.3c-2.5,0.6-4.9,1.1-7.3,1.8c-1.1-0.3-2.2-0.6-3.2-0.9c-0.1-0.4-2.1-8.4,3.2-14.5
			C240.4,460.5,247.1,461.5,247.7,461.6z"/>
		<path class="st8" d="M240,472.6c-2.5,4.9-2.2,8-4.5,8.8c-2.5,0.9-5.7-2-8.1-4.8c-1.8,1.1-4.1,2.2-6.9,3.1
			c-1.3,0.4-2.5,0.7-3.6,0.9c-5.5-1.6-11.1-3.2-16.6-4.8c0.9-2.8,2.6-6.9,5.7-11c3.1-4.3,5.4-5,8.5-8.3c6-6.4,8.8-13,12.1-21.1
			c1.1-2.5,3.5-8.9,5.3-17.6c0.9-4.3,1.3-8.1,1.6-11c1.3-0.3,14.3-3.5,21.5,4.8c1,1.1,2,2.7,2.8,4.8c2.9,1.7,5.8,3.6,8.9,5.7
			c3.2,2.2,6.2,4.4,8.9,6.6c-0.7,3.1-2,6.8-4,10.5c-2.9,5.2-6.3,8.5-11.7,13.6c-3.9,3.7-3.5,2.8-8.5,7.5
			C245,466.1,241.8,469.1,240,472.6z"/>
		<path class="st9" d="M227.5,199.9c1.1,1.8,2.7,1.8,8.1,4.4l0,0c6,2.7,8.3,2.5,12.5,4.4c2.2,0.9,3.9,1.7,5.7,3.5
			c2.1,2.1,2.9,4.3,3.6,5.7c3.1,6.3,7.8,6.6,13.4,12.3c2.4,2.4,5.4,6.4,7.7,12.7c0.7-0.3,1.3-0.6,2-0.9c-1.6-3.5-3-6.3-4-8.3
			c-1.8-3.4-2.4-4.3-2.8-4.8c-1.8-2.4-3.2-2.9-6.5-5.3c-6-4.4-9-6.5-9.7-10.1c-0.3-1.6,0-2.7-0.8-4.8c-0.5-1.3-1.3-2.3-2.8-4.4
			c-1.5-1.9-2.6-3.5-4.5-5.3c-1.1-1.1-2.3-2-3.6-3.1c-5.3-4-13.8-8.8-15.4-9.7C228.4,189.5,225.2,196,227.5,199.9z"/>
		<path class="st8" d="M223.4,163.9c-1.4,0.6-3.6,1.7-4.9,4c-1.8,3.2-0.2,5.5-1.2,11.4c-0.7,4-1.6,3.7-2.8,9.2
			c-0.8,3.3-1.4,6.3-1.2,9.7c0.4,5.7,3,7.4,4.9,13.2c1,3.1,2,7.9,1.2,14.5c1.1-1.6,2.5-3.8,4-6.6c3.3-6,5.1-9.1,6.1-13.6
			c1.3-5.7,0.1-8.1,2.4-10.5c0.2-0.2,2.8-2.9,5.3-2.2c1.5,0.4,2,1.3,4,2.2c1.8,0.8,3.4,0.9,4.5,0.9c-3.1-2.3-5.4-4.5-6.9-6.1
			c-2.4-2.7-2.4-3.3-5.3-6.6c-3.5-4-4.2-3.8-6.1-6.6c-2.2-3.2-3-6.1-3.2-7C223.6,167.3,223.5,165.3,223.4,163.9z"/>
		<path class="st7" d="M180.5,298.2c6.3,13.6,8.5,23.8,9.3,30.7c0.2,2.1,0.6,5.8,1.6,10.9c0.4,2.1,1.8,8.5,5.7,18.1
			c3.9,9.8,6.1,15.4,10.9,21.5c6,7.6,13,12.3,13.4,11.9c0.3-0.3-2.5-3.1-7.7-9.7c-3.6-4.5-7.4-9.4-10.1-14c-1.6-2.8-3-5.7-6.9-20.6
			c-5.3-20.2-5.5-25.3-9.7-35.6C184.6,305.6,182.2,301.1,180.5,298.2z"/>
		<path class="st8" d="M297.1,165.2c1.8,2.4,3.2,4.4,4,5.7c2.9,4.6,5.7,8.9,7.7,14c0.3,0.8,0.8,2.3,2,4c1.6,2.2,3.3,3.3,3.8,3.7
			c3.4,2.4,4.6,5.5,12.1,14.5c6.8,8.1,9.5,10.5,8.9,11.4c-0.7,1.1-5.4-0.2-9.3-3.1c-6.7-5-6.6-11.6-13.4-14.5
			c-1.9-0.8-3.1-1.3-4.5-0.9c-5.2,1.6-5.5,13.7-10.5,14.5c-1.1,0.2-1.9-0.2-2.4,0.4c-1,1.4,1.7,4.2,2,7.5c0.5,4.9-4.7,8.5-10.1,14
			c-3.3,3.3-7.8,8.5-12.3,16c0.3-2.4,0.7-6,1.4-10.3c2-12.3,3-18.4,6.1-22.8c3.3-4.8,5.7-4.1,8.5-9.7c0.5-0.9,1.2-2.5,2.8-10.5
			c1.4-7.1,3.2-15.8,2.8-22.4c0-0.8-0.5-3-0.4-6.1C296.6,168.4,296.9,166.5,297.1,165.2z"/>
	</g>
	<g>
		<path class="st10" d="M343.5,206.7c1-2.6,13.6-2,24.1,3.4c17.6,9.1,24.4,29.2,32.7,53.3c6,17.5,4,18.3,10.3,34.4
			c7.6,19.3,11.6,21.1,15.5,34.4c6.2,21.5,3.7,44.2,0,44.7c-3.4,0.5-8.5-17-15.5-41.3c-19.4-67-16.1-87.2-36.1-106.7
			C360,215,342.2,209.9,343.5,206.7z"/>
		<path class="st10" d="M145.6,218.7c-3.5-1-13.7,17.7-18.9,37.9c-5.3,20.7-2.4,31.5,5.2,86c7,50.2,8.7,70.6,25.8,86
			c3.9,3.5,12.9,10.6,15.5,8.6c3.4-2.7-6.3-19.4-12-31c-20-40.5-21.4-79.7-22.4-105C136.9,252.3,150.1,220,145.6,218.7z"/>
		<path class="st11" d="M169.7,471.7c0.9-2.1,23.9,11.4,62,17.2c68.5,10.4,119.1-14.6,120.5-10.3c1.2,3.9-38.8,30.5-89.5,29.3
			C209.1,506.5,168.4,474.6,169.7,471.7z"/>
		<path class="st11" d="M377,487.5c-3.4,2.8-7,5.5-11.2,8.1c6.2-21.2,14.6-34.5,15.5-34.2C382.1,461.6,378.7,471.4,377,487.5z"/>
		<path class="st10" d="M204.7,552.8c-12,2.1-23.8,3.1-36.4,3.3c-2.3-8.6-5.6-19.2-5.6-34.5c0-8.1,1-15.3,1.7-20.7
			c1.4-10,2-15,3.4-15.5C173.3,483.8,184.5,516.8,204.7,552.8z"/>
	</g>
	<g>
		<path class="st2" d="M309.3,100.2c-0.1-1.7-0.3-9.3,3.4-12.8c0.6-0.6,1.8-1.7,3.2-1.5c1.8,0.3,2.7,2.4,2.8,2.6
			c0.4,0.9,0.4,1.5,0,5.3c-0.3,3.3-0.6,4.7-0.8,7.5c-0.1,0.9-0.1,1.5-0.2,2.5c-0.7,9.4-1,14.1-0.2,16.4c0.1,0.4,0.5,1.4,0.4,2.6
			c0,0.1-0.2,1.8-1.2,3.1c-1.3,1.6-3.5,2.2-5.7,1.6c-10.8-2.9-25.1-5.5-42-5.5c-11.1,0-25.6,1.1-42,5.5c-4.4-0.5-8.8-0.9-13.2-1.4
			c-1.1-1.1-2.9-2.6-5.3-4.1c-2-1.2-2.5-1.1-3.4-1.8c-2-1.7-2.9-4.7-3.4-10.9c-0.4-6.5,0.2-6.9,0-12.8c-0.4-8.6-2-11.3,0-14.6
			c0.2-0.2,2-3.2,5-3.6c4.1-0.6,7.5,3.9,10.1,7.3c2,2.7,5,7.4,6.7,14.6C252.2,100.2,280.8,100.2,309.3,100.2z"/>
		<path class="st2" d="M311.4,105.6c-0.2,4.7-0.1,7.7-0.1,10.6c0.1,2.2,0.1,4.4,0.1,7.2c0,8.5-0.1,12.8-1,17.6
			c-1.9,9.6-6.1,16.6-8.1,19.5c-0.3,0.5-0.6,0.8-0.8,1.1c-7.6,10.4-16.9,14.4-18.7,15.1c-15.9,6.5-30.5-0.1-38.7-3.6
			c-5.5-2.4-16.4-7.2-23-17.8l0,0c-0.8-1.3-1.5-2.6-2.2-4.1c-1.7-3.8-2.6-7.4-3.4-10.9c-1.7-7.6-2.1-14.3-2-19.2
			c0-2.8,0.2-5,0.3-6.3c0.2-2.6,0.5-4.9,0.7-6.1c0.8-5,1.8-8.8,2.7-12.1c7.8-31.4,1.1-38.6,8.4-51.1c8.3-14.4,24.8-18.1,33.6-20.1
			c6-1.3,33.9-7.5,47.1,9.1c7.9,10.1,7.5,24.6,6.7,47.4C312.8,91.6,311.9,92.4,311.4,105.6z"/>
		<path class="st12" d="M216.9,100.2c0.6-1.8,1.5-4.7,2.5-8.2c2.5-8.9,2.4-11.4,4.2-17.3c2.3-7.3,3.4-6.4,5.9-13.7
			c3.7-11.1,1.2-13.9,4.2-17.3c4.4-5.1,10.3,0.4,26.9-1.8c9.8-1.3,12.9-4,21-2.7c5.5,0.8,9.8,2.9,12.6,4.6c6,0.9,8.7,3.3,10.1,5.5
			c4.4,6.8-0.9,16.8,4.2,26.5c0.6,1,1.2,2,1.7,3.6c0.7,2.5,0.1,9.9,0,12.8c0,2,0.2,4.8,1.5,8.3c0.4-6,1.2-10.6,1.9-13.7
			c0.3-1.5,1.5-6.9,2.5-11.9c0.7-3.4,1-5.2,1.7-9.1c3.2-18.1,3.4-16.8,3.4-18.2c-0.2-9.1-5.5-20.4-13.5-23.7
			c-3.4-1.4-4.5-1.2-8.4-3.6c-5.7-3.7-7.6-8-10.1-10.9c-9.2-10.8-30.2-5.7-38.7-3.6c-5.3,1.3-14.2,4.1-23.5,10.9
			c-6,4.4-13.6,10-16.8,20.1c-0.7,2.3-1,5.1-1.7,10.9c-1.4,12.7-0.3,20,0,21.9c0.3,2,0.7,4.4,1.7,7.3c1.8,5.4,3.5,7.1,5,10.9
			C216.2,90.1,217.3,94.3,216.9,100.2z"/>
		<path class="st13" d="M279.8,98.2c1.7-1.7,1.7-1.7,1.7-1.7c1.6-1.5,4.6-2.1,6.9-1.7c2.6,0.4,2.7,1.7,5.2,1.7c1.7,0,2.5-0.5,3.4,0
			c1.2,0.6,1.6,2.2,1.7,3.4c-2-0.9-3.9-1.4-5.2-1.7c-3.3-0.7-6-1.3-8.6,0c-1.3,0.6-1.8,1.3-3.4,1.7c-1.4,0.3-2.6,0.2-3.4,0
			C278.3,99.8,279.6,98.4,279.8,98.2z"/>
		<path class="st13" d="M233.3,96.5c1-1.3,2.8-3.1,5.2-3.4c2.7-0.4,3.5,1.4,6.9,1.7c4.2,0.3,4.6-2.3,8.6-1.7
			c3.4,0.5,6.3,2.9,6.9,3.4c0.8,0.7,1.3,1.3,1.7,1.7c-0.8,0.1-2,0.2-3.4,0c-2.8-0.4-4.7-1.5-5.2-1.7
			C251.9,95.4,246.7,94.7,233.3,96.5z"/>
		<g>
			<path class="st14" d="M262.7,91.9c0.2-1-10.2-3.4-14.4-7.2c-0.3-0.3-1.5-1.4-3.2-2.2c-0.3-0.2-1.6-0.7-3.2-0.9
				c-0.7-0.1-3.2-0.3-7.3,1.3c-0.6,0.2-6.6,2.7-6.3,4.2c0.2,1.2,4.3,1.3,5.7,1.3c3.4,0.1,4.4-0.7,7.5-0.7c2.2,0,3.7,0.4,5.7,0.9
				c5.4,1.3,6.7,3,11.3,3.5C260.1,92.3,262.6,92.4,262.7,91.9z"/>
			<path class="st14" d="M283.1,92.5c-0.1-0.4,1.3-0.8,4.5-2.2c3.5-1.6,3.5-2,5.3-2.6c1.9-0.7,4.9-1.9,8.1-0.9
				c4.9,1.5,7.7,6.9,7.3,7.5c-0.2,0.2-0.7-0.3-2-0.9c-0.9-0.4-3.1-1.3-10.5-0.9c-3.1,0.2-3.1,0.3-6.1,0.4
				C287.2,93.1,283.2,93.2,283.1,92.5z"/>
			<path id="XMLID_4_" class="st15" d="M258.4,98.2c-2.3,0.1-4.9,0.1-7.8-0.3c-1.8-0.2-3.6-0.5-5.6-1c-0.1,0-0.1,0-0.1,0
				c-2-0.5-3.8-1.1-5.5-1.7c0.8-0.8,2.2-1.8,4-2.2c0.4-0.1,0.5-0.1,2.3,0c0.3,0,0.6,0,0.9,0c1.9,0.1,3,0.1,3.7,0.1
				c0.6,0.1,1,0.1,1.5,0.3c0.9,0.3,1.5,0.7,2.4,1.3C255.5,95.5,257,96.6,258.4,98.2z"/>
			<g id="XMLID_8_">
				<path class="st16" d="M239.4,95.2c1.3-1.2,2.9-2.3,4.7-2.3c1.8-0.1,3.6,0.1,5.4,0.1c0.9,0,1.8,0.1,2.6,0.4
					c0.8,0.3,1.6,0.8,2.3,1.3c1.5,1,2.8,2.2,4,3.5l0,0c-1.2-1.3-2.5-2.5-4-3.5c-0.7-0.5-1.5-1-2.3-1.3c-0.8-0.3-1.7-0.4-2.6-0.4
					c-1.8-0.1-3.6-0.1-5.3-0.1C242.4,93,240.7,94,239.4,95.2L239.4,95.2z"/>
			</g>
			<path class="st15" d="M296.9,99.1c-2.1,0.5-3.9,0.7-5.2,0.9c0,0-0.1,0-0.1,0c-0.6,0.1-1.4,0.1-2.2,0.2c-0.6,0.1-1.3,0.1-2.1,0.1
				c-0.7,0-1.4,0-2.2-0.1c-0.7,0-1.4-0.1-2.1-0.2c-1-0.1-1.9-0.3-2.4-0.4c0.8-0.8,2.1-1.9,4-2.6c0.1,0,0.2-0.1,0.4-0.1
				c1-0.3,3.4-0.9,6.3-0.3c0.1,0,0.1,0,0.2,0C294.1,97.1,295.9,98.3,296.9,99.1z"/>
			<g>
				<path class="st16" d="M280.7,99.6c1-1,2.3-1.9,3.6-2.5c1.4-0.6,2.9-0.9,4.3-0.9c3-0.1,6,1,8.2,3l0,0c-2.3-1.9-5.2-2.9-8.2-2.9
					C285.7,96.2,282.8,97.5,280.7,99.6L280.7,99.6z"/>
			</g>
			
				<radialGradient id="SVGID_1_" cx="249.1777" cy="462.87" r="3.1925" gradientTransform="matrix(0.9218 0 0 -1 18.4027 558.315)" gradientUnits="userSpaceOnUse">
				<stop  offset="0" style="stop-color:#603813"/>
				<stop  offset="0.7541" style="stop-color:#4A270D"/>
				<stop  offset="1" style="stop-color:#42210B"/>
			</radialGradient>
			<path class="st17" d="M251.6,95.6c0,0.9-0.4,1.7-0.9,2.3c-0.7-0.1-1.4-0.2-2.1-0.3c-0.5-0.1-1-0.2-1.5-0.3
				c-0.6-0.1-1.3-0.3-1.9-0.4c-0.1,0-0.1,0-0.1,0c-0.3-0.7-0.4-1.4-0.3-2.2c0.2-0.7,0.6-1.3,1.1-1.8c0.3,0,0.6,0,0.9,0
				c1.9,0.1,3,0.1,3.7,0.1C251.1,93.7,251.6,94.6,251.6,95.6z"/>
			
				<radialGradient id="SVGID_2_" cx="292.8971" cy="460.0789" r="3.1547" gradientTransform="matrix(0.9218 0 0 -1 18.4027 558.315)" gradientUnits="userSpaceOnUse">
				<stop  offset="0" style="stop-color:#603813"/>
				<stop  offset="0.7541" style="stop-color:#4A270D"/>
				<stop  offset="1" style="stop-color:#42210B"/>
			</radialGradient>
			<path class="st18" d="M292,98.2c0,0.6-0.1,1.2-0.3,1.8c0,0-0.1,0-0.1,0c-0.6,0.1-1.4,0.1-2.2,0.2c-0.6,0.1-1.3,0.1-2.1,0.1
				c-0.7,0-1.4,0-2.2-0.1c-0.3-0.6-0.5-1.3-0.5-2c0-0.5,0.2-1,0.4-1.5c1-0.3,3.4-0.9,6.3-0.3C291.8,97,292,97.6,292,98.2z"/>
			<path class="st19" d="M249.1,96.5c0,0.5-0.3,0.9-0.6,1.2c-0.5-0.1-1-0.2-1.5-0.3c-0.2-0.2-0.3-0.5-0.3-0.9c0-0.7,0.6-1.3,1.2-1.3
				S249.1,95.8,249.1,96.5z"/>
			<path class="st19" d="M289.6,99.6c0,0.2-0.1,0.4-0.2,0.6c-0.6,0.1-1.3,0.1-2.1,0.1c-0.1-0.2-0.2-0.4-0.2-0.7
				c0-0.7,0.6-1.3,1.2-1.3C289.1,98.2,289.6,98.8,289.6,99.6z"/>
			<path class="st20" d="M248.7,93.9c0.1-0.1,0.8,0.3,1.2,0.9c0.3,0.5,0.5,1.2,0.4,1.3C250.1,96.2,248.5,94.1,248.7,93.9z"/>
			<path class="st20" d="M289.2,97.4c0.1-0.2,0.9-0.2,1.2,0.4c0.2,0.3,0.2,0.8,0,0.9C290.1,98.9,289,97.7,289.2,97.4z"/>
			<path class="st21" d="M260.5,122.8c0-0.4,1.3-0.8,2.4-0.9c2-0.1,4.1,0.8,4,1.3c-0.1,0.5-2.2,0.6-3.6,0.4
				C262.3,123.6,260.5,123.3,260.5,122.8z"/>
			<path class="st21" d="M276.3,123.7c0-0.3,1-0.8,2-0.9c0.7,0,1.6,0.1,1.6,0.4c0,0.4-1.2,1-2.4,0.9
				C277.1,124.1,276.3,124,276.3,123.7z"/>
			<path class="st22" d="M261.7,112.3c-5.3,1.9-9.3,6.6-9.3,6.6c-5.7,6.7-9.9,13.5-9.7,13.6c0.1,0.1,1.7-2.6,5.7-7.5
				c5.1-6.2,8.7-10.8,13-10.5c0.7,0,1.7,0.2,3,1c0.7-1.3,0.8-2.6,0.2-3.1C263.9,111.7,262.8,111.9,261.7,112.3z"/>
			<path class="st22" d="M254.4,121.1c-0.1,0.1,1,3.4,3.2,4c0.7,0.2,1.2,0,2,0.4c1,0.5,1.5,1.4,1.6,1.3c0.1-0.1-0.1-0.7-1.2-3.1
				c-1.2,0.1-2.7,0.1-4-0.9C254.9,122,254.5,121,254.4,121.1z"/>
			<path class="st23" d="M279.5,114.9c0.4,0.5,0.6,0.4,2,1.8c1.2,1.1,1.5,1.5,1.6,1.8c0.2,0.4,0.8,1.3,0.8,2.6c0,2-1.4,3.3-1.6,3.5
				c0.9-0.5,2-1.3,2.4-2.6c0.6-1.8-0.5-3.9-0.4-4c0.1,0,0.6,1.2,0.4,1.3c-0.2,0.1-1.5-1.8-2.4-3.5c-1-1.9-1.2-3.1-2-5.3
				c-0.5-1.4-1.3-3.4-2.4-5.7c0.1,2.1,0.3,3.9,0.4,5.3C278.6,113.5,278.9,114.3,279.5,114.9z"/>
			<path class="st14" d="M268.2,130.3c-0.7-2.1-4.6-2.2-6.1-2.2c-1.9-0.1-3.1,0.2-7.3,1.3c-7.6,2-8.3,2.3-9.3,3.1
				c-1.1,0.9-2.9,2.8-4,6.6c0.5-0.4,1.3-0.9,2.4-1.3c1-0.4,1.6-0.4,2.6-0.7c1.6-0.4,2.1-0.8,3.8-1.5c1.4-0.6,2.4-0.9,4.5-1.3
				c7.1-1.3,6.6-1.3,7.3-1.3c3.1,0,4.7,0.7,5.7-0.4C268.2,131.9,268.4,131,268.2,130.3z"/>
			<path class="st14" d="M272.6,129c-0.2,0.2-1.4,1.1-1.2,2.2c0.2,1,1.5,1.5,2,1.8c1.9,0.7,3,0,4.9,0c1.2,0,2.8,0.7,6.1,2.2
				c4.7,2.2,5.4,3.2,5.7,4c0.5,1.4,0.2,2.6,0.4,2.6c0.3,0,1.3-2.2,0.8-4.4c-0.1-0.4-0.4-1.6-2.8-4c-2-1.9-3.5-3.4-6.1-4.4
				c-2-0.8-3.6-0.8-5.7-0.9C274.3,128,273.3,128.4,272.6,129z"/>
			
				<linearGradient id="SVGID_3_" gradientUnits="userSpaceOnUse" x1="267.6577" y1="405.6071" x2="267.6577" y2="423.2731" gradientTransform="matrix(1 0 0 -1 0 558.315)">
				<stop  offset="0" style="stop-color:#A36B68"/>
				<stop  offset="2.330000e-02" style="stop-color:#A76D6A"/>
				<stop  offset="0.1579" style="stop-color:#B77875"/>
				<stop  offset="0.3074" style="stop-color:#C17E7B"/>
				<stop  offset="0.5" style="stop-color:#C4807D"/>
				<stop  offset="0.7085" style="stop-color:#C07D7A"/>
				<stop  offset="0.9171" style="stop-color:#B47673"/>
				<stop  offset="1" style="stop-color:#AD716E"/>
			</linearGradient>
			<path class="st24" d="M252.8,146.1c2.1,2,7.9,6.9,16.2,6.6c1.9-0.1,9.4-0.6,15-7c1.7-2,2.8-4,3.4-5.5c-0.8-0.7-2-1.6-3.4-2.4
				c-2.8-1.6-5.2-2-6.1-2.2c-3.3-0.6-6.2-0.1-8.1,0.4c-0.9-0.3-2.3-0.7-4-0.9c-2.6-0.3-4.6,0.1-6.5,0.4c-2.4,0.5-4.2,1.1-6.1,1.8
				c-2.2,0.8-4,1.6-5.3,2.2C248.8,141.3,250.4,143.7,252.8,146.1z"/>
			<path class="st16" d="M287.4,140.2c-2.5,1.5-4.4,2.4-5.5,2.9c-0.7,0.3-1.4,0.5-1.4,0.5c-0.5,0.2-1,0.3-1.5,0.5
				c-0.2,0.1-0.4,0.1-0.7,0.2c-0.6,0.2-1.2,0.3-1.8,0.4l-0.1,0c-1,0.2-2,0.3-3.1,0.4c-0.1,0-0.2,0-0.2,0c-1.2,0.1-2.3,0.1-3.5,0.2
				c-0.1,0-0.2,0-0.3,0c-0.5,0-1,0-1.5,0c0,0-0.7,0-1.9,0c-0.1,0-0.2,0-0.3,0c-0.9,0-2.1-0.1-3.4-0.2c-0.2,0-0.4-0.1-0.6-0.1l0,0
				c-0.9-0.1-1.9-0.2-2.9-0.4c-0.1,0-0.3-0.1-0.4-0.1l0,0c-1-0.2-1.9-0.4-2.9-0.7l0,0c-0.1,0-0.2-0.1-0.3-0.1
				c-2.2-0.6-3.6-1.3-3.6-1.3c-0.7-0.4-2-1.2-3.4-2.8c2.8-0.2,4.2-0.2,4.9-0.2c1.4,0.1,1.7,0.1,2.3,0.1c0.2,0,0.4,0,0.6,0
				c0.1,0,0.3,0,0.4,0c0.6,0,1.5,0.1,2.7,0.1h0.1c0.6,0,1.3,0.1,2.1,0.1c0.3,0,0.5,0,0.8,0l0,0c1.3,0,2.8,0.1,4.4,0.1l0,0
				c0.3,0,0.6,0,0.9,0c0.7,0,1.5,0,2.3,0.1c0.8,0,1.7,0,2.6,0h0.1c0.7,0,1.4,0,2.2,0c0.2,0,0.4,0,0.7,0c0.7,0,1.3,0,2,0
				c0.1,0,0.2,0,0.3,0c0.7,0,1.4,0,2,0c0.1,0,0.2,0,0.3,0h1c0.1,0,0.3,0,0.4,0c1,0,1.8,0,1.9,0C284.2,140,287,140.1,287.4,140.2z"/>
			<g>
				
					<linearGradient id="SVGID_4_" gradientUnits="userSpaceOnUse" x1="274.0439" y1="417.4196" x2="276.9669" y2="417.4196" gradientTransform="matrix(1 0 0 -1 0 558.315)">
					<stop  offset="0" style="stop-color:#FFFFFF"/>
					<stop  offset="1" style="stop-color:#E6E6E6"/>
				</linearGradient>
				<path class="st25" d="M276.7,141.7c-0.2,0.2-0.4,0-1.2,0c-0.2,0-0.4,0-0.6,0c-0.4,0-0.5,0.1-0.7,0c-0.2-0.2-0.3-0.6,0-1.7
					c0.2,0,0.4,0,0.7,0c0.7,0,1.3,0,2,0C277.1,141.2,276.9,141.6,276.7,141.7z"/>
				
					<linearGradient id="SVGID_5_" gradientUnits="userSpaceOnUse" x1="271.8674" y1="417.2229" x2="274.9724" y2="417.2229" gradientTransform="matrix(1 0 0 -1 0 558.315)">
					<stop  offset="0" style="stop-color:#FFFFFF"/>
					<stop  offset="1" style="stop-color:#E6E6E6"/>
				</linearGradient>
				<path class="st26" d="M274.9,141.7c-0.1,0.2-0.2,0.3-0.3,0.4c-0.2,0.1-0.3,0-0.8,0c-1.1-0.1-1.3,0.2-1.6,0
					c-0.1-0.1-0.2-0.2-0.3-0.4c-0.1-0.3-0.1-0.9,0-1.7h0.1c0.7,0,1.4,0,2.2,0c0.2,0,0.4,0,0.7,0C275,140.9,275,141.4,274.9,141.7z"
					/>
				
					<linearGradient id="SVGID_6_" gradientUnits="userSpaceOnUse" x1="253.1849" y1="417.9575" x2="253.1849" y2="414.6638" gradientTransform="matrix(1 0 0 -1 0 558.315)">
					<stop  offset="0" style="stop-color:#FFFFFF"/>
					<stop  offset="1" style="stop-color:#E6E6E6"/>
				</linearGradient>
				<path class="st27" d="M255,143.7c-1.3-0.4-2.5-0.8-3.6-1.3c0-1.3,0.3-1.8,0.6-1.9c0.2-0.1,0.3,0,0.8,0c0.1,0,0.3,0,0.4,0
					c0.6,0,0.7,0,0.8,0h0C254.4,140.5,254.8,141.2,255,143.7z"/>
				
					<linearGradient id="SVGID_7_" gradientUnits="userSpaceOnUse" x1="252.6744" y1="418.4039" x2="255.0661" y2="418.4039" gradientTransform="matrix(1 0 0 -1 0 558.315)">
					<stop  offset="0" style="stop-color:#FFFFFF"/>
					<stop  offset="1" style="stop-color:#E6E6E6"/>
				</linearGradient>
				<path class="st28" d="M254.8,140.4c-0.2,0.1-0.3,0-0.8,0l0,0c-0.1,0-0.3,0-0.4,0c-0.5,0-0.7,0.1-0.8,0c0,0,0,0,0,0
					c-0.1-0.1-0.2-0.4,0-1c0.7,0.1,1.5,0.1,2.3,0.1C255.1,140,254.9,140.3,254.8,140.4z"/>
				
					<linearGradient id="SVGID_8_" gradientUnits="userSpaceOnUse" x1="256.8414" y1="416.6633" x2="256.8414" y2="413.9147" gradientTransform="matrix(1 0 0 -1 0 558.315)">
					<stop  offset="0" style="stop-color:#FFFFFF"/>
					<stop  offset="1" style="stop-color:#E6E6E6"/>
				</linearGradient>
				<path class="st29" d="M258.3,144.4L258.3,144.4c-1-0.2-1.9-0.4-2.9-0.7l0,0c-0.2-1.4,0-1.9,0.3-2c0.2-0.1,0.4,0,1.2,0
					s1-0.1,1.2,0C258.3,141.9,258.6,142.5,258.3,144.4z"/>
				
					<linearGradient id="SVGID_9_" gradientUnits="userSpaceOnUse" x1="260.3866" y1="416.6177" x2="260.3866" y2="413.4389" gradientTransform="matrix(1 0 0 -1 0 558.315)">
					<stop  offset="0" style="stop-color:#FFFFFF"/>
					<stop  offset="1" style="stop-color:#E6E6E6"/>
				</linearGradient>
				<path class="st30" d="M262.1,143.5c-0.1,0.6-0.3,1.1-0.5,1.4l0,0c-0.9-0.1-1.9-0.2-2.9-0.4c0-2.1,0.3-2.7,0.6-2.8
					c0.4-0.1,0.7,0.5,1.6,0.4c0.4,0,0.6-0.2,0.8,0c0.3,0.2,0.4,0.8,0.4,0.9C262.1,143.2,262.1,143.3,262.1,143.5z"/>
				
					<linearGradient id="SVGID_10_" gradientUnits="userSpaceOnUse" x1="255.8302" y1="417.8842" x2="258.7891" y2="417.8842" gradientTransform="matrix(1 0 0 -1 0 558.315)">
					<stop  offset="0" style="stop-color:#FFFFFF"/>
					<stop  offset="1" style="stop-color:#E6E6E6"/>
				</linearGradient>
				<path class="st31" d="M258.7,140.9c-0.1,0.2-0.1,0.3-0.2,0.3c-0.2,0.1-0.4,0-1.2,0c-0.8,0-1,0.2-1.2,0c-0.2-0.2-0.3-0.6,0-1.7
					c0.6,0,1.5,0.1,2.7,0.1c0,0.1,0,0.1,0,0.2C258.8,140.4,258.8,140.7,258.7,140.9z"/>
				
					<linearGradient id="SVGID_11_" gradientUnits="userSpaceOnUse" x1="258.6644" y1="417.8017" x2="261.0651" y2="417.8017" gradientTransform="matrix(1 0 0 -1 0 558.315)">
					<stop  offset="0" style="stop-color:#FFFFFF"/>
					<stop  offset="1" style="stop-color:#E6E6E6"/>
				</linearGradient>
				<path class="st32" d="M260.9,141.3c-0.1,0.1-0.3,0-0.8,0c-0.8,0-1,0.2-1.2,0c-0.1-0.1-0.1-0.2-0.2-0.3c0-0.2,0-0.6,0.1-1.1
					c0-0.1,0-0.1,0-0.2c0.6,0,1.3,0.1,2.1,0.1C261.2,140.8,261,141.1,260.9,141.3z"/>
				
					<linearGradient id="SVGID_12_" gradientUnits="userSpaceOnUse" x1="261.4699" y1="417.2884" x2="266.1731" y2="417.2884" gradientTransform="matrix(1 0 0 -1 0 558.315)">
					<stop  offset="0" style="stop-color:#FFFFFF"/>
					<stop  offset="1" style="stop-color:#E6E6E6"/>
				</linearGradient>
				<path class="st33" d="M265.7,142.2c-0.2,0.2-0.4,0.1-1.6,0c-1.5-0.2-2,0.1-2.4-0.4c-0.4-0.5-0.2-1.4,0-1.9l0,0
					c1.3,0,2.8,0.1,4.4,0.1l0,0c0,0,0,0.1,0,0.1l0,0C266.1,140,266.3,141.6,265.7,142.2z"/>
				
					<linearGradient id="SVGID_13_" gradientUnits="userSpaceOnUse" x1="266.9136" y1="417.0111" x2="272.0693" y2="417.0111" gradientTransform="matrix(1 0 0 -1 0 558.315)">
					<stop  offset="0" style="stop-color:#FFFFFF"/>
					<stop  offset="1" style="stop-color:#E6E6E6"/>
				</linearGradient>
				<path class="st34" d="M271.9,141.7c-0.1,0.5-0.3,0.7-0.5,0.9c-0.2,0.1-0.3,0.1-0.5,0.1l0,0c-0.3,0-0.7-0.1-1.5-0.1
					c-0.6,0-1,0.1-1.3,0.1l0,0c-0.3,0-0.5,0.1-0.7-0.1l0,0l0,0c-0.3-0.2-0.6-0.9-0.3-2.7c0.7,0,1.5,0,2.3,0.1c0.8,0,1.7,0,2.6,0h0.1
					C272.1,140.8,272,141.3,271.9,141.7z"/>
				
					<linearGradient id="SVGID_14_" gradientUnits="userSpaceOnUse" x1="263.923" y1="415.7973" x2="263.923" y2="413.1259" gradientTransform="matrix(1 0 0 -1 0 558.315)">
					<stop  offset="0" style="stop-color:#FFFFFF"/>
					<stop  offset="1" style="stop-color:#E6E6E6"/>
				</linearGradient>
				<path class="st35" d="M265.6,145.2c-0.9,0-2.1-0.1-3.4-0.2c-0.2-1.6,0-2.2,0.3-2.4c0.2-0.1,0.4,0,1.2,0c1.1,0,1.3-0.2,1.6,0
					C265.6,142.8,265.9,143.4,265.6,145.2z"/>
				
					<linearGradient id="SVGID_15_" gradientUnits="userSpaceOnUse" x1="279.3857" y1="415.7336" x2="279.3857" y2="414.1108" gradientTransform="matrix(1 0 0 -1 0 558.315)">
					<stop  offset="0" style="stop-color:#FFFFFF"/>
					<stop  offset="1" style="stop-color:#E6E6E6"/>
				</linearGradient>
				<path class="st36" d="M280.5,143.6c-0.5,0.2-1,0.3-1.5,0.5c-0.2,0.1-0.4,0.1-0.7,0.2c0-1.2,0.2-1.5,0.4-1.6
					c0.2-0.1,0.5,0.3,1,0.2c0.2,0,0.3-0.1,0.4,0C280.3,142.9,280.4,143.2,280.5,143.6z"/>
				
					<linearGradient id="SVGID_16_" gradientUnits="userSpaceOnUse" x1="267.5451" y1="415.7222" x2="267.5451" y2="413.0858" gradientTransform="matrix(1 0 0 -1 0 558.315)">
					<stop  offset="0" style="stop-color:#FFFFFF"/>
					<stop  offset="1" style="stop-color:#E6E6E6"/>
				</linearGradient>
				<path class="st37" d="M269.2,145.2c-0.5,0-1,0-1.5,0c0,0-0.7,0-1.9,0c-0.2-1.4,0-1.9,0.2-2.2c0,0,0.3-0.3,1.2-0.4l0,0
					c0.1,0,0.2,0,0.4,0c0,0,0.1,0,0.3,0.1l0,0c0.1,0,0.1,0,0.2,0.1c0.3,0.1,0.6,0.2,0.7,0.3C269.2,143.2,269.4,143.7,269.2,145.2z"
					/>
				
					<linearGradient id="SVGID_17_" gradientUnits="userSpaceOnUse" x1="274.7322" y1="416.2079" x2="274.7322" y2="413.2941" gradientTransform="matrix(1 0 0 -1 0 558.315)">
					<stop  offset="0" style="stop-color:#FFFFFF"/>
					<stop  offset="1" style="stop-color:#E6E6E6"/>
				</linearGradient>
				<path class="st38" d="M276.5,144.6L276.5,144.6c-1.1,0.2-2.1,0.3-3.1,0.4c-0.1,0-0.2,0-0.2,0c-0.2-0.9-0.2-1.7,0.1-2.2
					c0.1-0.1,0.1-0.2,0.2-0.2c0.3-0.3,0.8-0.3,1.6-0.4c0.4-0.1,0.7-0.1,0.8,0c0.3,0.1,0.4,0.5,0.5,0.9
					C276.5,143.6,276.5,144.2,276.5,144.6z"/>
				
					<linearGradient id="SVGID_18_" gradientUnits="userSpaceOnUse" x1="277.6576" y1="415.778" x2="277.6576" y2="413.7112" gradientTransform="matrix(1 0 0 -1 0 558.315)">
					<stop  offset="0" style="stop-color:#FFFFFF"/>
					<stop  offset="1" style="stop-color:#E6E6E6"/>
				</linearGradient>
				<path class="st39" d="M279,144c-0.2,0.1-0.4,0.1-0.7,0.2c-0.6,0.2-1.2,0.3-1.8,0.4l-0.1,0c-0.1-0.8-0.1-1.3,0-1.5
					c0.1-0.3,0.2-0.4,0.3-0.5c0.1-0.1,0.2,0,0.8,0c0.8,0,1-0.1,1.2,0C278.9,142.7,279,143.1,279,144z"/>
				
					<linearGradient id="SVGID_19_" gradientUnits="userSpaceOnUse" x1="271.5192" y1="415.8763" x2="271.5192" y2="413.1271" gradientTransform="matrix(1 0 0 -1 0 558.315)">
					<stop  offset="0" style="stop-color:#FFFFFF"/>
					<stop  offset="1" style="stop-color:#E6E6E6"/>
				</linearGradient>
				<path class="st40" d="M273.3,145c-0.1,0-0.2,0-0.2,0c-1.2,0.1-2.3,0.1-3.5,0.2c0-0.5,0-1.6,0.6-2.2c0.2-0.2,0.4-0.3,0.7-0.3l0,0
					c0.1,0,0.3-0.1,0.5-0.1c0.7-0.2,1.3-0.3,1.6,0c0.1,0.1,0.2,0.1,0.2,0.2C273.5,143.3,273.6,144.1,273.3,145z"/>
				
					<linearGradient id="SVGID_20_" gradientUnits="userSpaceOnUse" x1="280.5515" y1="417.8025" x2="282.8949" y2="417.8025" gradientTransform="matrix(1 0 0 -1 0 558.315)">
					<stop  offset="0" style="stop-color:#FFFFFF"/>
					<stop  offset="1" style="stop-color:#E6E6E6"/>
				</linearGradient>
				<path class="st41" d="M282.9,140c-0.1,0.2-0.2,0.6-0.6,0.8c-0.4,0.2-0.8,0.2-1.2,0c-0.1,0-0.1-0.1-0.1-0.1
					c-0.3-0.2-0.4-0.5-0.4-0.7c0.1,0,0.3,0,0.4,0C281.6,140,282.2,140,282.9,140z"/>
				
					<linearGradient id="SVGID_21_" gradientUnits="userSpaceOnUse" x1="279.2592" y1="417.6528" x2="280.9918" y2="417.6528" gradientTransform="matrix(1 0 0 -1 0 558.315)">
					<stop  offset="0" style="stop-color:#FFFFFF"/>
					<stop  offset="1" style="stop-color:#E6E6E6"/>
				</linearGradient>
				<path class="st42" d="M281,140.7c0,0.3-0.1,0.5-0.3,0.5c-0.1,0.1-0.2,0-0.4,0c-0.2,0-0.4-0.1-0.7-0.3c-0.1,0-0.1-0.1-0.1-0.1
					c-0.2-0.3-0.2-0.6-0.2-0.8c0.1,0,0.2,0,0.3,0h1c0.1,0,0.3,0,0.4,0C281,140.3,281,140.5,281,140.7z"/>
				
					<linearGradient id="SVGID_22_" gradientUnits="userSpaceOnUse" x1="277.185" y1="417.4401" x2="279.6366" y2="417.4401" gradientTransform="matrix(1 0 0 -1 0 558.315)">
					<stop  offset="0" style="stop-color:#FFFFFF"/>
					<stop  offset="1" style="stop-color:#E6E6E6"/>
				</linearGradient>
				<path class="st43" d="M279.6,141c0,0.2-0.1,0.3-0.1,0.3c-0.2,0.1-0.3-0.1-0.8,0c-0.7,0.1-1,0.5-1.2,0.4
					c-0.2-0.1-0.3-0.5-0.3-1.7c0.7,0,1.4,0,2,0c0.1,0,0.2,0,0.3,0C279.6,140.5,279.7,140.8,279.6,141z"/>
			</g>
			<path class="st44" d="M253,139.7L253,139.7z"/>
			<path class="st44" d="M260.7,143.2L260.7,143.2z"/>
		</g>
		<path class="st45" d="M315.3,90.6c0.1-0.2,0.4-0.9,0.8-0.9c0.4,0,0.7,0.9,0.8,1.3c0.9,3.2-0.4,10.1-0.4,10.1
			c-0.9,4.6-1.3,6.8-1.2,9.2c0.1,2.5,0.1,4.6,0,8.8c0,0.4-0.1,1.6-0.8,2.6c-0.4,0.6-1,1-1.2,0.9c-0.2-0.2,0.5-1.1,0.8-2.6
			c0.3-1.2,0.1-1.7,0-4c0,0,0-0.7,0-3.5c0-2.4,0.3-4.3,0.8-7.9c0.4-3.1,0.6-6.2,1.2-9.2c0.1-0.4,0.4-1.7,0-3.1
			C315.9,91.5,315.6,90.9,315.3,90.6z"/>
		<path class="st45" d="M208.1,83.1c-0.2-0.5-2.3-0.3-3.6,0.9c-1.2,1.1-1.6,2.9-1.6,6.6c0,4.7,0.5,7.2,1.2,12.7
			c0.5,3.8,0.1,5.7,1.2,8.8c0.2,0.5,1.6,4.6,2.8,4.4c0.7-0.1,1.2-1.5,1.2-2.6c0.1-2.4-1.6-3.8-2.8-5.7c-1.6-2.5-1.8-6.4-2-14
			c-0.2-5.4,0.3-7.1,1.2-8.3C206.7,84.2,208.2,83.5,208.1,83.1z"/>
		<path class="st46" d="M212.9,96.7c-2.2,0.7-4.3,3.2-4.5,6.1c-0.1,3.5,2.5,6.4,3.2,6.1c0.3-0.1,0.3-0.8,0.4-2.2
			c0.1-1.9,0-2.8,0-3.5c0.1-3.6,3.8-5.6,3.2-6.6C215,96,213,96.7,212.9,96.7z"/>
		<path class="st47" d="M208.5,93.6c-0.6,0.8-0.9,2-1.2,4c-0.3,1.6-0.3,2.6-0.4,2.6c-0.2,0-0.5-2.7-0.4-5.3c0.1-2.1,0.6-5.6,2.8-9.7
			c0.7,0.9,1.3,1.9,2,3.1c0.8,1.4,1.5,2.7,2,4C212.5,92.2,209.8,91.9,208.5,93.6z"/>
		<path class="st47" d="M312.1,99.3c0.2-0.1,0.9,1.4,1.2,3.1c0.5,2.3,0.2,4,0,5.7c-0.5,5.2,0.7,8.7,0.4,8.8
			c-0.3,0.1-1.5-2.8-1.6-6.1c-0.1-2.7,0.5-3.2,0.4-6.6C312.4,101.3,311.9,99.4,312.1,99.3z"/>
		<path class="st48" d="M226.7,76.5L226.7,76.5z"/>
		<path class="st12" d="M288.6,20.8c-0.3-1.4,7.9-7.9,15.8-4.8c4.7,1.8,7,6.1,7.7,7.5c-0.7-0.9-1.7-2.1-3.2-3.1
			c-1.4-0.9-4.8-2.6-6.1-1.3c-1.4,1.5,1.1,5.7,0,6.6c-0.9,0.7-2.9-1.9-6.9-3.5C291.6,20.4,288.7,21.5,288.6,20.8z"/>
		<path id="XMLID_3_" class="st12" d="M209.3,44c0.2,0-1.6-6.4,1.4-9.9c1-1.2,2.3-1.7,3.2-1.9c-2.5-0.7-3.8,0.1-4.2,0.4
			C206.1,35.2,209.1,44,209.3,44z"/>
		<path id="XMLID_2_" class="st12" d="M319.4,62.5c-0.1,0,1.9-6-0.8-9.7c-1.3-1.7-3.2-2.3-4.6-2.6c3.3-1.3,4.8-0.3,5.3,0
			C322.7,52.9,319.5,62.5,319.4,62.5z"/>
		<path id="XMLID_1_" class="st12" d="M290.1,19.3c-0.1-0.4,2.8-1.1,4-4c0.6-1.4,0.6-2.8,0.4-4c1.7,1.4,2.5,3.5,2,5.3
			C295.6,20.1,290.3,19.8,290.1,19.3z"/>
		<g>
			<path class="st14" d="M304.5,90.1c-0.5-1.3-1.2-2.3-2.2-3.2C303.7,87.2,304.6,88.7,304.5,90.1z"/>
		</g>
		<g>
			<path class="st14" d="M282.7,135.3c-0.5-1.3-1.2-2.3-2.2-3.2C281.8,132.5,282.8,133.9,282.7,135.3z"/>
		</g>
		<g>
			<path class="st14" d="M255.5,91.8c-1.4,0-2.7-1.2-2.9-2.5C253.4,90.4,254.2,91.2,255.5,91.8z"/>
		</g>
		<g>
			<path class="st14" d="M291.5,136.2c-1.4,0-2.7-1.2-2.9-2.5C289.4,134.8,290.3,135.6,291.5,136.2z"/>
		</g>
		<g>
			<path class="st14" d="M233.9,87.3c-0.7,1.2-2.3,1.7-3.6,1.2C231.7,88.5,232.8,88.1,233.9,87.3z"/>
		</g>
		<g>
			<path class="st14" d="M234.3,86.9c-0.7,1.2-2.3,1.7-3.6,1.2C232.1,88,233.2,87.6,234.3,86.9z"/>
		</g>
		<g>
			<path class="st14" d="M246.1,135.8c-0.2,1.4-1.5,2.5-2.9,2.6C244.4,137.8,245.3,137,246.1,135.8z"/>
		</g>
		<g>
			<path class="st14" d="M249.3,132.3c-1.2,0.7-2.9,0.2-3.6-0.9C246.9,132,248,132.3,249.3,132.3z"/>
		</g>
	</g>
	<g>
		<g>
			<path class="st49" d="M229.9,67.3c0.6,0.2-1.1,3.1,0,6.9c0.9,3.3,3.2,4.5,2.6,6c-0.6,1.5-2.9,0.8-4.3,2.6c-1.6,2,0.2,4.6,0,8.6
				c-0.2,3.8-1.9,4.5-3.4,8.6c-2.9,8-0.4,15.9,0,17.2c2.2,6.8,6.5,10,5.2,12c-1.2,1.8-4.8-0.3-6.9,1.7c-1.8,1.7-1.1,5.2,1.7,15.5
				c1.3,4.7,2.5,8.8,3.4,12c-3.9-4.3-9.6-11.8-12-22.4c-2-8.7-0.8-15.8,1.6-30.1c2.5-14.7,7-30.1,7-30.1l0,0
				C224.7,75.9,228.9,66.9,229.9,67.3z"/>
			<path class="st50" d="M228.2,101.7c3-1.1,5.8,8.6,13.8,10.3c8.4,1.9,16.3-6.4,17.2-5.2c0.8,1.1-5.2,7.4-10.3,12
				c-5.7,5.1-8.1,6-10.3,10.3c-1,1.9-3.3,6.3-1.7,10.3c1.1,2.7,3,2.9,3.4,5.2c0.7,3.8-3.7,9-6.9,8.6c-3.6-0.5-5.6-8.7-5.2-13.8
				c0.1-1.2,0.5-3.8,1.7-6.9c0.9-2.2,1.3-2.3,1.7-3.4c1.7-4.6-3.5-8.2-5.2-15.5C225.3,108.8,225.9,102.5,228.2,101.7z"/>
			<path class="st50" d="M260.9,117.2c-1.1,0.3-2.6,0.6-3.4,1.7c-0.1,0.2-0.2,0.4-0.3,0.4c-0.5,1.1-0.4,2.7,0.3,3
				c0.7,0.4,1.5-1,3.4-1.7c1.7-0.6,3.7-0.6,5.2,0c3.3,1.3,3.8,5.4,5.2,5.2c1.4-0.2,1-4,3.4-5.2c1.4-0.6,3-0.1,3.4,0
				c2.1,0.6,2.8,2,3.4,1.7c0.6-0.3,0.8-2.1,0-3.4c-1.1-1.9-3.3-1.4-5.2-3.4c-0.2-0.2-0.9-1-1.7-3.4c-2.6-8.1,0-15.5,0-15.5
				c1-2.9,2.3-4.7,1.7-5.2c-0.5-0.5-2.3,0.5-3.4,1.7c-1.4,1.6-1.6,3.5-1.7,5.2c-0.9,10.5-1.3,11.3-1.7,12c-1.7,3.1-4.9,5-5.2,5.2
				C262.7,116.4,261.9,116.9,260.9,117.2z"/>
			<path class="st50" d="M250.5,81c6.7,2.4,8.1,1.5,10.3,3.4c3.8,3.2,2.5,7.8,5.2,8.6c2.3,0.7,3.7-2.7,8.6-5.2
				c7.1-3.5,15.5-1.8,15.5-1.7c0,0-1.7,0.1-1.7,0c0-0.2,6.8-0.7,6.9-1.7c0.1-1.1-8.6-0.1-17.2-5.2c-3.7-2.2-3.9-2.6-6.9-3.4
				c-3.7-1.1-6-0.7-13.8,0c-10.4,0.9-13.6,0.8-13.8,1.7C243.5,78.6,247,79.8,250.5,81z"/>
			<path class="st49" d="M309.1,87.9c0.2,0,0.1,4.1,0,12c-0.1,7.1-0.1,10.9,0,15.5c0.2,11.8,0.8,13.7,0,18.9
				c-0.8,5.1-2.2,9.1-3.2,11.5c-0.1,0.3-0.2,0.5-0.2,0.5c-0.1,0,2.4-5.1,1.7-10.3c-0.6-4.3-2.8-4.3-3.4-8.6
				c-0.5-3.2,0.5-4.7,1.7-10.3c0.5-2.3,0.9-5.5,1.7-12C308.6,94.6,308.8,87.9,309.1,87.9z"/>
			<path class="st50" d="M283.2,101.7c1.8,0.2,4.1,0.3,6.9,0c2.8-0.3,5.2-1,6.9-1.7c-0.1,0.3-1.4,4.1-5.2,5.2
				C288.7,106,285.2,104.6,283.2,101.7z"/>
			<path class="st50" d="M240.2,96.5c0.7,0.8,2.4,2.5,5.2,3.4c3.2,1,5.9,0.3,6.9,0c-2.4,2.5-5.9,3.1-8.6,1.7
				C240.8,100.2,240.3,96.9,240.2,96.5z"/>
			<path class="st50" d="M233.3,89.6c0.6,0,4.6,0.2,8.6,0c2.7-0.2,3.5-0.4,5.2,0c1.7,0.4,3.5,1.3,3.4,1.7c-0.1,0.5-2.5-0.1-6.9,0
				c-5.3,0.1-6.9,1-10.3,0c-1.7-0.5-3.5-1.4-3.4-1.7C230,89.4,231.2,89.5,233.3,89.6z"/>
			<path class="st50" d="M297,93.1c0.7,0.2,0.6,0.3,3.4,1.7c2.4,1.2,3.5,1.6,3.4,1.7c-0.1,0.2-3.6-1.4-8.6-1.7
				c-3.4-0.2-5.1,0.3-5.2,0C290,94.3,293.7,92.1,297,93.1z"/>
			<path class="st50" d="M283.2,110.3c1.1-1.1,6.5,5,12,3.4c4.1-1.2,5.5-5.7,6.9-5.2c1.3,0.5-0.4,4.7,0,12c0.4,5.8,1.8,8.5,0,12
				c-0.5,0.9-1.7,3.4-3.4,3.4c-2.6,0.1-3.7-5.2-8.6-13.8C286,115.1,282.3,111.2,283.2,110.3z"/>
			<path class="st49" d="M243.7,143c0.6,0,0.8,1.3,3.4,3.4c0.1,0.1,0.1,0.1,0.1,0.1c2.7,2.2,4.2,2.4,5,3.3c1.6,1.8-1,4.5,0,6.9
				c1.9,4.6,15.4,2.5,15.5,3.4c0.1,0.7-7.2,3.3-15.5,1.7c-3.7-0.7-8-1.5-10.3-5.2C238.4,151.2,242.3,143,243.7,143z"/>
			<path class="st49" d="M291.8,144.7c-2.4,4-4.9,6.6-6.9,8.6c-2,2-4.6,4.7-8.6,6.9c-4.9,2.7-8.7,2.9-8.6,3.4
				c0.1,0.7,5.1,1.1,10.3,0c9.1-1.9,15-7.8,17.2-10.3c4.5-5.1,9-13.2,6.9-15.5c-1-1.2-3.6-0.7-5.2,0
				C294.5,139,294,141.1,291.8,144.7z"/>
			<path class="st49" d="M276.4,46.6c-2,2.4-1.1,7.6,1.7,10.3c4,3.8,8.7-0.2,13.8,3.4c2.4,1.7,3.9,5.2,6.9,12c1.9,4.4,2.6,7,3.4,6.9
				c0.4-0.1,1-0.8,1.7-8.6c0.8-8.3,1.1-12.5,0-15.5c-0.5-1.3-2.3-5.9-6.9-8.6c-3.8-2.2-7.3-2.1-13.8-1.7
				C277.6,45.2,276.7,46.2,276.4,46.6z"/>
			<path class="st49" d="M240.2,46.6c5.3-2,12.4-1.3,13.8,1.7c0.3,0.7,0.1,1.1-1.7,6.9c-1.7,5.3-1.8,5.9-1.7,6.9
				c0.2,4,4,5.6,3.4,6.9c-0.9,2-11.9,1.8-17.2-5.2c-2.7-3.6-4.5-9.7-1.7-13.8C236.5,48,238.5,47.2,240.2,46.6z"/>
			<path class="st49" d="M235.1,163.6c0.3-0.5,17.6,13.9,37.9,10.3c21.9-3.9,33.7-26.5,34.4-25.8c0.7,0.6-9,24.3-31,29.3
				C253.9,182.4,234.8,164.2,235.1,163.6z"/>
		</g>
		<path class="st49" d="M247.1,177.4c-0.3,0.7,6.4,2.2,12,8.6c2.6,2.9,3,4.6,5.2,5.2c2.7,0.6,5.3-1.3,10.3-5.2c4-3,7.4-5.7,6.9-6.9
			c-0.7-1.5-6.6,1.6-15.5,1.7C255.3,180.9,247.4,176.6,247.1,177.4z"/>
		<path class="st50" d="M288.4,187.7c1,1.1-1.6,5.9-6.9,15.5c-3.5,6.3-4.3,7.2-5.2,10.3c-1.9,6.9,0.1,11.2-1.7,12
			c-2.2,1-7.2-3.9-10.3-8.6c-4.4-6.7-2.6-9.6-6.9-15.5c-4.1-5.7-9.1-7.7-8.6-8.6c0.6-1.1,7.1,3.3,15.5,3.4
			C277.6,196.5,286.4,185.7,288.4,187.7z"/>
	</g>
	<g>
		<path class="st51" d="M217.8,34.6c-4.2,1.7-5.6,6.3-6.9,10.3c-2.7,8.4-1.3,15.7,0,22.4c1.4,6.9,4.5,17.5,6.9,17.2
			c0.1,0,0.1,0,0.2-0.1c2.2-0.8,0.4-7.2,1.5-13.7c1-6.3,3.4-4.5,5.2-12c0.5-2,2-9.7,3.4-13.8c0,0,0-0.1,0.1-0.2
			c1.2-3.4,1.9-5.5,1.7-6.7C229.4,35.3,222.8,32.5,217.8,34.6z"/>
		<path class="st51" d="M259.1,32.8c7.2,3.2,10.7-0.6,20.7,0c11.4,0.7,26.7,6.2,29.3,15.5c1.1,3.9-1,5.1,0,13.8
			c0.7,5.9,2.4,12.1,3.4,12c0.7-0.1,0.7-3,1.7-8.6c1.6-8.8,3-9.3,3.4-13.8c0-0.4,0.8-10.2-5.2-17.2c-4.9-5.7-9.6-3.3-17.2-8.6
			c-7.9-5.6-6.9-11-12-15.5c-15-13-54.2,6.7-53.3,10.3c0.4,1.6,7.8-1.2,17.2,3.4C253.5,27.4,253.6,30.4,259.1,32.8z"/>
	</g>
</g>
</svg>
